<svg xmlns="http://www.w3.org/2000/svg" xml:space="preserve" width="1500" height="1500" data-id="lg_v5GQJSp3Gm75ux5nd2" data-version="1" viewBox="0 0 1500 1500"><path stroke="transparent" d="M0 0h1500v1500H0z"/><g data-padding="20"><g transform="translate(-566.726 -579.295)scale(1.71604)"><rect width="585.812" height="171.76" x="214.205" y="635.017" fill="none" rx="0" ry="0" transform="matrix(.96 0 0 .96 280.48 82.57)"/><path d="M523.546 819.801h-16.46q-.57 0-.57-.71l.15-99.82q0-.57.71-.57h16.17q.71 0 .71.57l-.14 39.52h21.78v-39.52q0-.57.57-.57h16.18q.7 0 .7.57l.29 99.82q0 .71-.71.71h-16.32q-.71 0-.71-.71v-42.71h-21.78v42.71q0 .71-.57.71m69.53 1.42q-7.74 0-14.26-3.97-6.46-3.98-10.4-10.61t-3.94-14.58l.15-46.05q0-8.08 3.9-14.54 3.83-6.53 10.36-10.46 6.52-3.94 14.19-3.94 7.94 0 14.26 3.9 6.38 3.9 10.25 10.46 3.87 6.57 3.87 14.58l.14 46.05q0 7.95-3.83 14.54-3.91 6.67-10.36 10.65-6.46 3.97-14.33 3.97m0-17.52q4.4 0 7.66-3.59 3.26-3.58 3.26-8.05l-.14-46.05q0-4.82-3.05-8.15-3.05-3.34-7.73-3.34-4.47 0-7.67 3.26-3.19 3.27-3.19 8.23v46.05q0 4.75 3.19 8.2 3.2 3.44 7.67 3.44m45.97 16.1h-14.55q-1.13 0-1.13-.99l-.15-98.98q0-1.13 1.14-1.13h13.13l24.54 57.26-.71-56.13q0-1.13 1.28-1.13h14.4q.86 0 .86 1.13l.14 99.12q0 .85-.71.85h-12.77l-25.19-53.49 1.06 52.36q0 1.13-1.34 1.13m89.81 0h-46.97q-.56 0-.56-.71l.14-99.82q0-.57.57-.57h46.68q.57 0 .57.71v16.25q0 .56-.57.56h-29.8v22.71h29.8q.57 0 .57.57l.14 16.46q0 .56-.57.56h-29.94v25.4h29.94q.57 0 .57.71v16.6q0 .57-.57.57"/><path d="M763.346 819.801h-16.67q-.5 0-.5-.57l.14-41.29-19.44-58.67q-.14-.57.43-.57h16.17q.71 0 .85.57l10.72 39.09 10.92-39.09q.15-.57.71-.57h16.32q.57 0 .43.57l-19.66 58.1.15 41.86q0 .57-.57.57"/><path d="m808.736 819.661-26.04.14q-.71 0-.71-.71l.29-99.82q0-.57.56-.57l27.18-.14q8.09-.22 14.61 3.69 6.6 3.9 10.54 10.53 3.94 6.64 3.94 14.65v41.72q0 8.37-4.05 15.33-4.11 6.88-10.92 10.96-6.82 4.08-15.4 4.22m1.28-83.72-10.15.14-.14 65.84h9.01q5.39 0 9.08-3.76t3.69-9.01v-41.86q0-4.61-3.4-8.05-3.41-3.44-8.09-3.3m48.24 83.86h-16.46q-.57 0-.57-.71l.28-99.82q0-.57.57-.57h29.37q7.88 0 14.48 3.83t10.53 10.29q3.94 6.45 3.94 14.61 0 5.32-1.63 9.65t-3.8 7.31q-2.16 2.98-3.93 4.4 7.87 8.73 7.87 20.5l.14 29.8q0 .71-.71.71h-16.46q-.56 0-.56-.42v-30.09q0-5.25-3.69-9.08t-9.09-3.83h-9.57l-.15 42.71q0 .71-.56.71m13.19-83.72h-12.48v22.85h12.48q4.47 0 7.99-3.34 3.51-3.33 3.51-8.16 0-4.61-3.41-7.98-3.4-3.37-8.09-3.37m78.04 83.72h-46.97q-.56 0-.56-.71l.14-99.82q0-.57.57-.57h46.68q.57 0 .57.71v16.25q0 .56-.57.56h-29.8v22.71h29.8q.57 0 .57.57l.14 16.46q0 .56-.57.56h-29.94v25.4h29.94q.57 0 .57.71v16.6q0 .57-.57.57"/><path d="M984.676 819.801h-17.6q-.64 0-.71-.71l-17.17-99.82q-.14-.57.43-.57h16.32q.56 0 .71.57l9.29 65.62 9.58-65.62q.14-.57.85-.57h13.13q.56 0 .7.57l9.44 65.62 9.44-65.62q.14-.57.71-.57h16.17q.71 0 .57.57l-17.31 99.82q-.07.29-.43.5l-.28.21h-17.6q-.42 0-.71-.71l-7.44-52.15-7.38 52.15q-.07.71-.71.71"/></g><path fill="transparent" stroke="transparent" stroke-width="1.779" d="M250 603.203h1000v293.594H250z"/></g></svg>